<svg width="32" height="32" viewBox="0 0 32 32" fill="none" xmlns="http://www.w3.org/2000/svg">
<path d="M3 28V3H7.93886V13.0142L10.2664 3H15.2904L12.4945 14.4489L15.8723 28H10.6921L7.96725 15.8977V28H3Z" fill="#202020"/>
<path d="M16.738 28V3H23.5076C25.3242 3 26.6441 3.44508 27.4672 4.33523C28.2999 5.21591 28.7162 6.67424 28.7162 8.71023V9.80398C28.7162 10.9782 28.5033 11.9299 28.0775 12.6591C27.6612 13.3883 27.0226 13.8665 26.1616 14.0938C27.2875 14.3778 28.0397 15.0455 28.4181 16.0966C28.806 17.1383 29 18.4119 29 19.9176C29 21.5369 28.8486 22.9527 28.5459 24.1648C28.2431 25.3769 27.6943 26.3191 26.8996 26.9915C26.1048 27.6638 24.9742 28 23.5076 28H16.738ZM21.6201 12.4176H22.6419C23.1055 12.4176 23.4036 12.2377 23.536 11.8778C23.6685 11.518 23.7347 11.0871 23.7347 10.5852V8.07102C23.7347 7.2661 23.3799 6.86364 22.6703 6.86364H21.6201V12.4176ZM22.1168 23.5966C23.413 23.5966 24.0611 22.9811 24.0611 21.75V18.625C24.0611 17.9148 23.9523 17.3561 23.7347 16.9489C23.5266 16.5322 23.1292 16.3239 22.5426 16.3239H21.6201V23.5682C21.8282 23.5871 21.9938 23.5966 22.1168 23.5966Z" fill="#202020"/>
<path d="M2.5 28V28.5H3H7.96725H8.46725V28V20.3947L10.2044 28.1098L10.2922 28.5H10.6921H15.8723H16.238H16.5122H16.738H23.5076C25.0446 28.5 26.3067 28.148 27.2225 27.3732C28.1123 26.6205 28.708 25.5789 29.0309 24.2859C29.346 23.0245 29.5 21.5664 29.5 19.9176C29.5 18.3733 29.3016 17.0375 28.8876 15.9246C28.5949 15.1131 28.1011 14.4957 27.4236 14.0791C27.8678 13.7856 28.2325 13.3953 28.5106 12.909C28.9942 12.0795 29.2162 11.0327 29.2162 9.80398V8.71023C29.2162 6.62903 28.7947 5.01311 27.8325 3.99374C26.876 2.96086 25.3929 2.5 23.5076 2.5H16.738H16.238V3V27.3999L13.0095 14.4476L15.7761 3.11862L15.9272 2.5H15.2904H10.2664H9.86926L9.77936 2.88681L8.43886 8.65433V3V2.5H7.93886H3H2.5V3V28ZM23.2874 17.1723L23.2873 17.1724L23.2937 17.1845C23.4572 17.4905 23.5611 17.9567 23.5611 18.625V21.75C23.5611 22.2817 23.4225 22.5903 23.2307 22.7724C23.0345 22.9587 22.6954 23.0961 22.1201 23.0966V16.8239H22.5426C22.9984 16.8239 23.1873 16.9719 23.2874 17.1723ZM22.6419 11.9176H22.1201V7.36364H22.6703C22.9305 7.36364 23.0392 7.43453 23.0936 7.49613C23.1585 7.56976 23.2347 7.73122 23.2347 8.07102V10.5852C23.2347 11.0454 23.1737 11.4147 23.0668 11.7051C23.0356 11.79 22.9965 11.8294 22.9547 11.8546C22.9055 11.8844 22.812 11.9176 22.6419 11.9176Z" stroke="black" stroke-opacity="0.1"/>
</svg>
