<svg width="60" height="57" viewBox="0 0 60 57" fill="none" xmlns="http://www.w3.org/2000/svg">
<path d="M1.4375 56V1H12.3125V23.0312L17.4375 1H28.5L22.3438 26.1875L29.7812 56H18.375L12.375 29.375V56H1.4375Z" fill="#202020"/>
<path d="M31.6875 56V1H46.5938C50.5938 1 53.5 1.97917 55.3125 3.9375C57.1458 5.875 58.0625 9.08333 58.0625 13.5625V15.9688C58.0625 18.5521 57.5938 20.6458 56.6562 22.25C55.7396 23.8542 54.3333 24.9062 52.4375 25.4062C54.9167 26.0312 56.5729 27.5 57.4062 29.8125C58.2604 32.1042 58.6875 34.9062 58.6875 38.2188C58.6875 41.7812 58.3542 44.8958 57.6875 47.5625C57.0208 50.2292 55.8125 52.3021 54.0625 53.7812C52.3125 55.2604 49.8229 56 46.5938 56H31.6875ZM42.4375 21.7188H44.6875C45.7083 21.7188 46.3646 21.3229 46.6562 20.5312C46.9479 19.7396 47.0938 18.7917 47.0938 17.6875V12.1562C47.0938 10.3854 46.3125 9.5 44.75 9.5H42.4375V21.7188ZM43.5312 46.3125C46.3854 46.3125 47.8125 44.9583 47.8125 42.25V35.375C47.8125 33.8125 47.5729 32.5833 47.0938 31.6875C46.6354 30.7708 45.7604 30.3125 44.4688 30.3125H42.4375V46.25C42.8958 46.2917 43.2604 46.3125 43.5312 46.3125Z" fill="#202020"/>
<path d="M0.9375 56V56.5H1.4375H12.375H12.875V56V33.8681L17.8872 56.1099L17.9751 56.5H18.375H29.7812H30.4213L30.2664 55.879L22.8588 26.1863L28.9857 1.11871L29.1369 0.5H28.5H17.4375H17.0405L16.9505 0.886713L12.8125 18.6751V1V0.5H12.3125H1.4375H0.9375V1V56ZM31.1875 56V56.5H31.6875H46.5938C49.8933 56.5 52.5142 55.7446 54.3853 54.1631C56.2303 52.6036 57.4857 50.4314 58.1726 47.6838C58.8516 44.9678 59.1875 41.8108 59.1875 38.2188C59.1875 34.8676 58.756 32.0035 57.8757 29.6405C57.1508 27.6307 55.8331 26.2106 53.954 25.3925C55.2924 24.7696 56.3429 23.8051 57.0891 22.5003C58.0847 20.7957 58.5625 18.6067 58.5625 15.9688V13.5625C58.5625 9.03805 57.6407 5.67197 55.6775 3.59575C53.7316 1.49482 50.6621 0.5 46.5938 0.5H31.6875H31.1875V1V56ZM46.6465 31.9111L46.6464 31.9112L46.6529 31.9233C47.0778 32.7179 47.3125 33.8544 47.3125 35.375V42.25C47.3125 43.5202 46.9791 44.3827 46.398 44.9342C45.812 45.4903 44.8876 45.8125 43.5312 45.8125C43.3735 45.8125 43.1761 45.8047 42.9375 45.7886V30.8125H44.4688C45.6299 30.8125 46.2964 31.2107 46.6465 31.9111ZM44.6875 21.2188H42.9375V10H44.75C45.4368 10 45.8654 10.1917 46.1329 10.4949C46.4109 10.81 46.5938 11.3336 46.5938 12.1562V17.6875C46.5938 18.7499 46.4531 19.6362 46.1871 20.3584C46.0763 20.6591 45.908 20.8605 45.6871 20.9937C45.4587 21.1315 45.1362 21.2188 44.6875 21.2188Z" stroke="black" stroke-opacity="0.1"/>
</svg>
